# Swiss Roll OBJ File
v 3000.0 3000.0 0.0
v 3001.919335591396 3000.6303705973705 0.0
v 3003.2536172021455 3002.39558759214 0.0
v 3003.5154964216435 3004.9368239518203 0.0
v 3002.3993565683095 3007.716381749043 0.0
v 2999.8397377390424 3010.0997386633726 0.0
v 2996.035539838577 3011.4545553783596 0.0
v 2991.435822606134 3011.2531977448803 0.0
v 2986.688055249619 3009.1646038604085 0.0
v 2982.5546732070093 3005.1224101243897 0.0
v 2979.8081506589256 2999.359031646504 0.0
v 2979.117941760313 2992.3995523705407 0.0
v 2980.944167400175 2985.0143276067733 0.0
v 2985.4526043833143 2978.134529070198 0.0
v 2992.4633668855345 2972.7398177376986 0.0
v 3001.4418762370833 2969.73129275203 0.0
v 3011.5357162534747 2969.8053216884005 0.0
v 3021.655344122095 2973.3444648627074 0.0
v 3030.5910375574977 2980.3403339107053 0.0
v 3037.153586518244 2990.359976249615 0.0
v 3040.322693998864 3002.5625826123864 0.0
v 3039.3853062491667 3015.767498118923 0.0
v 3034.0464196941766 3028.5683382082907 0.0
v 3024.49734495968 3039.482191694624 0.0
v 3011.430736267124 3047.11813664599 0.0
v 2995.997476926425 3050.3462008056536 0.0
v 2979.707124711068 3048.4468922155943 0.0
v 2964.2803236029845 3041.222704055687 0.0
v 2951.4676049079203 3029.0564989172835 0.0
v 2942.8536084450975 3012.9070817188076 0.0
v 2939.668368328904 2994.2390276785345 0.0
v 2942.627551150719 2974.8912189947373 0.0
v 2951.8212881017694 2956.895741380765 0.0
v 2966.6666666666665 2942.2649730810376 0.0
v 2985.932471284411 2932.7691249064596 0.0
v 3007.837044437445 2929.7285934219317 0.0
v 3030.2120009455916 2933.8449457923984 0.0
v 3050.7168651062907 2945.0911248074167 0.0
v 3067.083386522529 2962.6758061175397 0.0
v 3077.3640791782736 2985.0892958988766 0.0
v 3080.1579646731957 3010.2296932180807 0.0
v 3074.7878546863667 3035.5991745366787 0.0
v 3061.4077365664907 3058.5521585499973 0.0
v 3041.0255681115664 3076.5706962186787 0.0
v 3015.435393570394 3087.5384669344185 0.0
v 2987.0622874297014 3089.9837674437213 0.0
v 2958.7332036770395 3083.264067913942 0.0
v 2933.395313692531 3067.669951625872 0.0
v 2913.8098958880073 3044.4340869553853 0.0
v 2902.2535241512255 3015.640542227665 0.0
v 2900.2586981134955 2984.040263032995 0.0
v 2908.4230143810078 2952.788782609903 0.0
v 2926.3097087662045 2925.1311173500994 0.0
v 2952.453473801806 2904.0653130556752 0.0
v 2984.4747449156416 2892.0194790675346 0.0
v 3019.294241962992 2890.576916331977 0.0
v 3053.42864684297 2900.2800235291625 0.0
v 3083.339071054523 2920.536356253575 0.0
v 3105.7974529709577 2949.6401921188444 0.0
v 3118.2329978929633 2984.911202503331 0.0
v 3119.0216602742676 3022.939544770959 0.0
v 3107.686488891428 3059.9151533376335 0.0
v 3084.985017205136 3092.0094665389233 0.0
v 3052.8710016547857 3115.771344863302 0.0
v 3014.3305955427572 3128.4962863141823 0.0
v 2973.106195102551 3128.5296141494155 0.0
v 2933.3333333333335 3115.470053837925 0.0
v 2899.12582196308 3090.2495414840237 0.0
v 2874.1507573628674 3055.07732607606 0.0
v 2861.237247156479 3013.250236339371 0.0
v 2862.060434177821 2968.8449751614994 0.0
v 2876.935712445084 2926.3210206026024 0.0
v 2904.7475296079588 2890.072789184835 0.0
v 2943.023850150306 2863.976033394678 0.0
v 2988.1525317022174 2850.975245615265 0.0
v 3035.7210508347616 2852.7558229812817 0.0
v 3080.9477485624207 2869.537105704721 0.0
v 3119.1624689296186 2900.0108162709826 0.0
v 3146.288280354048 2941.4350069868574 0.0
v 3159.274641295513 2989.8777986810733 0.0
v 3156.4361537610275 3040.5895736858306 0.0
v 3137.659669008739 3088.468497401825 0.0
v 3104.4551892948098 3128.5737577210584 0.0
v 3059.8415280648996 3156.634893741422 0.0
v 3008.0745069276654 3169.5047605886316 0.0
v 2954.2418703764592 3165.5082494496874 0.0
v 2903.763382843464 3144.648499997152 0.0
v 2861.845213651268 3108.6461248508945 0.0
v 2832.9435340825053 3060.8035810356746 0.0
v 2820.2925408644373 3005.704618346117 0.0
v 2825.5467320700914 2948.7758987561037 0.0
v 2848.576628464414 2895.7526310878548 0.0
v 2887.442239966332 2852.1008296387145 0.0
v 2938.5508674979387 2822.454391635426 0.0
v 2996.987069493996 2810.1249131285977 0.0
v 3056.9847184973455 2816.7359334602284 0.0
v 3112.4958854925962 2842.021633541753 0.0
v 3157.8004343040657 2883.8140017812116 0.0
v 3188.094887956793 2938.223681457673 0.0
v 3200.0 2999.9999999999995 0.0
v 3000.0 3000.0 111.11111111111111
v 3001.919335591396 3000.6303705973705 111.11111111111111
v 3003.2536172021455 3002.39558759214 111.11111111111111
v 3003.5154964216435 3004.9368239518203 111.11111111111111
v 3002.3993565683095 3007.716381749043 111.11111111111111
v 2999.8397377390424 3010.0997386633726 111.11111111111111
v 2996.035539838577 3011.4545553783596 111.11111111111111
v 2991.435822606134 3011.2531977448803 111.11111111111111
v 2986.688055249619 3009.1646038604085 111.11111111111111
v 2982.5546732070093 3005.1224101243897 111.11111111111111
v 2979.8081506589256 2999.359031646504 111.11111111111111
v 2979.117941760313 2992.3995523705407 111.11111111111111
v 2980.944167400175 2985.0143276067733 111.11111111111111
v 2985.4526043833143 2978.134529070198 111.11111111111111
v 2992.4633668855345 2972.7398177376986 111.11111111111111
v 3001.4418762370833 2969.73129275203 111.11111111111111
v 3011.5357162534747 2969.8053216884005 111.11111111111111
v 3021.655344122095 2973.3444648627074 111.11111111111111
v 3030.5910375574977 2980.3403339107053 111.11111111111111
v 3037.153586518244 2990.359976249615 111.11111111111111
v 3040.322693998864 3002.5625826123864 111.11111111111111
v 3039.3853062491667 3015.767498118923 111.11111111111111
v 3034.0464196941766 3028.5683382082907 111.11111111111111
v 3024.49734495968 3039.482191694624 111.11111111111111
v 3011.430736267124 3047.11813664599 111.11111111111111
v 2995.997476926425 3050.3462008056536 111.11111111111111
v 2979.707124711068 3048.4468922155943 111.11111111111111
v 2964.2803236029845 3041.222704055687 111.11111111111111
v 2951.4676049079203 3029.0564989172835 111.11111111111111
v 2942.8536084450975 3012.9070817188076 111.11111111111111
v 2939.668368328904 2994.2390276785345 111.11111111111111
v 2942.627551150719 2974.8912189947373 111.11111111111111
v 2951.8212881017694 2956.895741380765 111.11111111111111
v 2966.6666666666665 2942.2649730810376 111.11111111111111
v 2985.932471284411 2932.7691249064596 111.11111111111111
v 3007.837044437445 2929.7285934219317 111.11111111111111
v 3030.2120009455916 2933.8449457923984 111.11111111111111
v 3050.7168651062907 2945.0911248074167 111.11111111111111
v 3067.083386522529 2962.6758061175397 111.11111111111111
v 3077.3640791782736 2985.0892958988766 111.11111111111111
v 3080.1579646731957 3010.2296932180807 111.11111111111111
v 3074.7878546863667 3035.5991745366787 111.11111111111111
v 3061.4077365664907 3058.5521585499973 111.11111111111111
v 3041.0255681115664 3076.5706962186787 111.11111111111111
v 3015.435393570394 3087.5384669344185 111.11111111111111
v 2987.0622874297014 3089.9837674437213 111.11111111111111
v 2958.7332036770395 3083.264067913942 111.11111111111111
v 2933.395313692531 3067.669951625872 111.11111111111111
v 2913.8098958880073 3044.4340869553853 111.11111111111111
v 2902.2535241512255 3015.640542227665 111.11111111111111
v 2900.2586981134955 2984.040263032995 111.11111111111111
v 2908.4230143810078 2952.788782609903 111.11111111111111
v 2926.3097087662045 2925.1311173500994 111.11111111111111
v 2952.453473801806 2904.0653130556752 111.11111111111111
v 2984.4747449156416 2892.0194790675346 111.11111111111111
v 3019.294241962992 2890.576916331977 111.11111111111111
v 3053.42864684297 2900.2800235291625 111.11111111111111
v 3083.339071054523 2920.536356253575 111.11111111111111
v 3105.7974529709577 2949.6401921188444 111.11111111111111
v 3118.2329978929633 2984.911202503331 111.11111111111111
v 3119.0216602742676 3022.939544770959 111.11111111111111
v 3107.686488891428 3059.9151533376335 111.11111111111111
v 3084.985017205136 3092.0094665389233 111.11111111111111
v 3052.8710016547857 3115.771344863302 111.11111111111111
v 3014.3305955427572 3128.4962863141823 111.11111111111111
v 2973.106195102551 3128.5296141494155 111.11111111111111
v 2933.3333333333335 3115.470053837925 111.11111111111111
v 2899.12582196308 3090.2495414840237 111.11111111111111
v 2874.1507573628674 3055.07732607606 111.11111111111111
v 2861.237247156479 3013.250236339371 111.11111111111111
v 2862.060434177821 2968.8449751614994 111.11111111111111
v 2876.935712445084 2926.3210206026024 111.11111111111111
v 2904.7475296079588 2890.072789184835 111.11111111111111
v 2943.023850150306 2863.976033394678 111.11111111111111
v 2988.1525317022174 2850.975245615265 111.11111111111111
v 3035.7210508347616 2852.7558229812817 111.11111111111111
v 3080.9477485624207 2869.537105704721 111.11111111111111
v 3119.1624689296186 2900.0108162709826 111.11111111111111
v 3146.288280354048 2941.4350069868574 111.11111111111111
v 3159.274641295513 2989.8777986810733 111.11111111111111
v 3156.4361537610275 3040.5895736858306 111.11111111111111
v 3137.659669008739 3088.468497401825 111.11111111111111
v 3104.4551892948098 3128.5737577210584 111.11111111111111
v 3059.8415280648996 3156.634893741422 111.11111111111111
v 3008.0745069276654 3169.5047605886316 111.11111111111111
v 2954.2418703764592 3165.5082494496874 111.11111111111111
v 2903.763382843464 3144.648499997152 111.11111111111111
v 2861.845213651268 3108.6461248508945 111.11111111111111
v 2832.9435340825053 3060.8035810356746 111.11111111111111
v 2820.2925408644373 3005.704618346117 111.11111111111111
v 2825.5467320700914 2948.7758987561037 111.11111111111111
v 2848.576628464414 2895.7526310878548 111.11111111111111
v 2887.442239966332 2852.1008296387145 111.11111111111111
v 2938.5508674979387 2822.454391635426 111.11111111111111
v 2996.987069493996 2810.1249131285977 111.11111111111111
v 3056.9847184973455 2816.7359334602284 111.11111111111111
v 3112.4958854925962 2842.021633541753 111.11111111111111
v 3157.8004343040657 2883.8140017812116 111.11111111111111
v 3188.094887956793 2938.223681457673 111.11111111111111
v 3200.0 2999.9999999999995 111.11111111111111
v 3000.0 3000.0 222.22222222222223
v 3001.919335591396 3000.6303705973705 222.22222222222223
v 3003.2536172021455 3002.39558759214 222.22222222222223
v 3003.5154964216435 3004.9368239518203 222.22222222222223
v 3002.3993565683095 3007.716381749043 222.22222222222223
v 2999.8397377390424 3010.0997386633726 222.22222222222223
v 2996.035539838577 3011.4545553783596 222.22222222222223
v 2991.435822606134 3011.2531977448803 222.22222222222223
v 2986.688055249619 3009.1646038604085 222.22222222222223
v 2982.5546732070093 3005.1224101243897 222.22222222222223
v 2979.8081506589256 2999.359031646504 222.22222222222223
v 2979.117941760313 2992.3995523705407 222.22222222222223
v 2980.944167400175 2985.0143276067733 222.22222222222223
v 2985.4526043833143 2978.134529070198 222.22222222222223
v 2992.4633668855345 2972.7398177376986 222.22222222222223
v 3001.4418762370833 2969.73129275203 222.22222222222223
v 3011.5357162534747 2969.8053216884005 222.22222222222223
v 3021.655344122095 2973.3444648627074 222.22222222222223
v 3030.5910375574977 2980.3403339107053 222.22222222222223
v 3037.153586518244 2990.359976249615 222.22222222222223
v 3040.322693998864 3002.5625826123864 222.22222222222223
v 3039.3853062491667 3015.767498118923 222.22222222222223
v 3034.0464196941766 3028.5683382082907 222.22222222222223
v 3024.49734495968 3039.482191694624 222.22222222222223
v 3011.430736267124 3047.11813664599 222.22222222222223
v 2995.997476926425 3050.3462008056536 222.22222222222223
v 2979.707124711068 3048.4468922155943 222.22222222222223
v 2964.2803236029845 3041.222704055687 222.22222222222223
v 2951.4676049079203 3029.0564989172835 222.22222222222223
v 2942.8536084450975 3012.9070817188076 222.22222222222223
v 2939.668368328904 2994.2390276785345 222.22222222222223
v 2942.627551150719 2974.8912189947373 222.22222222222223
v 2951.8212881017694 2956.895741380765 222.22222222222223
v 2966.6666666666665 2942.2649730810376 222.22222222222223
v 2985.932471284411 2932.7691249064596 222.22222222222223
v 3007.837044437445 2929.7285934219317 222.22222222222223
v 3030.2120009455916 2933.8449457923984 222.22222222222223
v 3050.7168651062907 2945.0911248074167 222.22222222222223
v 3067.083386522529 2962.6758061175397 222.22222222222223
v 3077.3640791782736 2985.0892958988766 222.22222222222223
v 3080.1579646731957 3010.2296932180807 222.22222222222223
v 3074.7878546863667 3035.5991745366787 222.22222222222223
v 3061.4077365664907 3058.5521585499973 222.22222222222223
v 3041.0255681115664 3076.5706962186787 222.22222222222223
v 3015.435393570394 3087.5384669344185 222.22222222222223
v 2987.0622874297014 3089.9837674437213 222.22222222222223
v 2958.7332036770395 3083.264067913942 222.22222222222223
v 2933.395313692531 3067.669951625872 222.22222222222223
v 2913.8098958880073 3044.4340869553853 222.22222222222223
v 2902.2535241512255 3015.640542227665 222.22222222222223
v 2900.2586981134955 2984.040263032995 222.22222222222223
v 2908.4230143810078 2952.788782609903 222.22222222222223
v 2926.3097087662045 2925.1311173500994 222.22222222222223
v 2952.453473801806 2904.0653130556752 222.22222222222223
v 2984.4747449156416 2892.0194790675346 222.22222222222223
v 3019.294241962992 2890.576916331977 222.22222222222223
v 3053.42864684297 2900.2800235291625 222.22222222222223
v 3083.339071054523 2920.536356253575 222.22222222222223
v 3105.7974529709577 2949.6401921188444 222.22222222222223
v 3118.2329978929633 2984.911202503331 222.22222222222223
v 3119.0216602742676 3022.939544770959 222.22222222222223
v 3107.686488891428 3059.9151533376335 222.22222222222223
v 3084.985017205136 3092.0094665389233 222.22222222222223
v 3052.8710016547857 3115.771344863302 222.22222222222223
v 3014.3305955427572 3128.4962863141823 222.22222222222223
v 2973.106195102551 3128.5296141494155 222.22222222222223
v 2933.3333333333335 3115.470053837925 222.22222222222223
v 2899.12582196308 3090.2495414840237 222.22222222222223
v 2874.1507573628674 3055.07732607606 222.22222222222223
v 2861.237247156479 3013.250236339371 222.22222222222223
v 2862.060434177821 2968.8449751614994 222.22222222222223
v 2876.935712445084 2926.3210206026024 222.22222222222223
v 2904.7475296079588 2890.072789184835 222.22222222222223
v 2943.023850150306 2863.976033394678 222.22222222222223
v 2988.1525317022174 2850.975245615265 222.22222222222223
v 3035.7210508347616 2852.7558229812817 222.22222222222223
v 3080.9477485624207 2869.537105704721 222.22222222222223
v 3119.1624689296186 2900.0108162709826 222.22222222222223
v 3146.288280354048 2941.4350069868574 222.22222222222223
v 3159.274641295513 2989.8777986810733 222.22222222222223
v 3156.4361537610275 3040.5895736858306 222.22222222222223
v 3137.659669008739 3088.468497401825 222.22222222222223
v 3104.4551892948098 3128.5737577210584 222.22222222222223
v 3059.8415280648996 3156.634893741422 222.22222222222223
v 3008.0745069276654 3169.5047605886316 222.22222222222223
v 2954.2418703764592 3165.5082494496874 222.22222222222223
v 2903.763382843464 3144.648499997152 222.22222222222223
v 2861.845213651268 3108.6461248508945 222.22222222222223
v 2832.9435340825053 3060.8035810356746 222.22222222222223
v 2820.2925408644373 3005.704618346117 222.22222222222223
v 2825.5467320700914 2948.7758987561037 222.22222222222223
v 2848.576628464414 2895.7526310878548 222.22222222222223
v 2887.442239966332 2852.1008296387145 222.22222222222223
v 2938.5508674979387 2822.454391635426 222.22222222222223
v 2996.987069493996 2810.1249131285977 222.22222222222223
v 3056.9847184973455 2816.7359334602284 222.22222222222223
v 3112.4958854925962 2842.021633541753 222.22222222222223
v 3157.8004343040657 2883.8140017812116 222.22222222222223
v 3188.094887956793 2938.223681457673 222.22222222222223
v 3200.0 2999.9999999999995 222.22222222222223
v 3000.0 3000.0 333.33333333333337
v 3001.919335591396 3000.6303705973705 333.33333333333337
v 3003.2536172021455 3002.39558759214 333.33333333333337
v 3003.5154964216435 3004.9368239518203 333.33333333333337
v 3002.3993565683095 3007.716381749043 333.33333333333337
v 2999.8397377390424 3010.0997386633726 333.33333333333337
v 2996.035539838577 3011.4545553783596 333.33333333333337
v 2991.435822606134 3011.2531977448803 333.33333333333337
v 2986.688055249619 3009.1646038604085 333.33333333333337
v 2982.5546732070093 3005.1224101243897 333.33333333333337
v 2979.8081506589256 2999.359031646504 333.33333333333337
v 2979.117941760313 2992.3995523705407 333.33333333333337
v 2980.944167400175 2985.0143276067733 333.33333333333337
v 2985.4526043833143 2978.134529070198 333.33333333333337
v 2992.4633668855345 2972.7398177376986 333.33333333333337
v 3001.4418762370833 2969.73129275203 333.33333333333337
v 3011.5357162534747 2969.8053216884005 333.33333333333337
v 3021.655344122095 2973.3444648627074 333.33333333333337
v 3030.5910375574977 2980.3403339107053 333.33333333333337
v 3037.153586518244 2990.359976249615 333.33333333333337
v 3040.322693998864 3002.5625826123864 333.33333333333337
v 3039.3853062491667 3015.767498118923 333.33333333333337
v 3034.0464196941766 3028.5683382082907 333.33333333333337
v 3024.49734495968 3039.482191694624 333.33333333333337
v 3011.430736267124 3047.11813664599 333.33333333333337
v 2995.997476926425 3050.3462008056536 333.33333333333337
v 2979.707124711068 3048.4468922155943 333.33333333333337
v 2964.2803236029845 3041.222704055687 333.33333333333337
v 2951.4676049079203 3029.0564989172835 333.33333333333337
v 2942.8536084450975 3012.9070817188076 333.33333333333337
v 2939.668368328904 2994.2390276785345 333.33333333333337
v 2942.627551150719 2974.8912189947373 333.33333333333337
v 2951.8212881017694 2956.895741380765 333.33333333333337
v 2966.6666666666665 2942.2649730810376 333.33333333333337
v 2985.932471284411 2932.7691249064596 333.33333333333337
v 3007.837044437445 2929.7285934219317 333.33333333333337
v 3030.2120009455916 2933.8449457923984 333.33333333333337
v 3050.7168651062907 2945.0911248074167 333.33333333333337
v 3067.083386522529 2962.6758061175397 333.33333333333337
v 3077.3640791782736 2985.0892958988766 333.33333333333337
v 3080.1579646731957 3010.2296932180807 333.33333333333337
v 3074.7878546863667 3035.5991745366787 333.33333333333337
v 3061.4077365664907 3058.5521585499973 333.33333333333337
v 3041.0255681115664 3076.5706962186787 333.33333333333337
v 3015.435393570394 3087.5384669344185 333.33333333333337
v 2987.0622874297014 3089.9837674437213 333.33333333333337
v 2958.7332036770395 3083.264067913942 333.33333333333337
v 2933.395313692531 3067.669951625872 333.33333333333337
v 2913.8098958880073 3044.4340869553853 333.33333333333337
v 2902.2535241512255 3015.640542227665 333.33333333333337
v 2900.2586981134955 2984.040263032995 333.33333333333337
v 2908.4230143810078 2952.788782609903 333.33333333333337
v 2926.3097087662045 2925.1311173500994 333.33333333333337
v 2952.453473801806 2904.0653130556752 333.33333333333337
v 2984.4747449156416 2892.0194790675346 333.33333333333337
v 3019.294241962992 2890.576916331977 333.33333333333337
v 3053.42864684297 2900.2800235291625 333.33333333333337
v 3083.339071054523 2920.536356253575 333.33333333333337
v 3105.7974529709577 2949.6401921188444 333.33333333333337
v 3118.2329978929633 2984.911202503331 333.33333333333337
v 3119.0216602742676 3022.939544770959 333.33333333333337
v 3107.686488891428 3059.9151533376335 333.33333333333337
v 3084.985017205136 3092.0094665389233 333.33333333333337
v 3052.8710016547857 3115.771344863302 333.33333333333337
v 3014.3305955427572 3128.4962863141823 333.33333333333337
v 2973.106195102551 3128.5296141494155 333.33333333333337
v 2933.3333333333335 3115.470053837925 333.33333333333337
v 2899.12582196308 3090.2495414840237 333.33333333333337
v 2874.1507573628674 3055.07732607606 333.33333333333337
v 2861.237247156479 3013.250236339371 333.33333333333337
v 2862.060434177821 2968.8449751614994 333.33333333333337
v 2876.935712445084 2926.3210206026024 333.33333333333337
v 2904.7475296079588 2890.072789184835 333.33333333333337
v 2943.023850150306 2863.976033394678 333.33333333333337
v 2988.1525317022174 2850.975245615265 333.33333333333337
v 3035.7210508347616 2852.7558229812817 333.33333333333337
v 3080.9477485624207 2869.537105704721 333.33333333333337
v 3119.1624689296186 2900.0108162709826 333.33333333333337
v 3146.288280354048 2941.4350069868574 333.33333333333337
v 3159.274641295513 2989.8777986810733 333.33333333333337
v 3156.4361537610275 3040.5895736858306 333.33333333333337
v 3137.659669008739 3088.468497401825 333.33333333333337
v 3104.4551892948098 3128.5737577210584 333.33333333333337
v 3059.8415280648996 3156.634893741422 333.33333333333337
v 3008.0745069276654 3169.5047605886316 333.33333333333337
v 2954.2418703764592 3165.5082494496874 333.33333333333337
v 2903.763382843464 3144.648499997152 333.33333333333337
v 2861.845213651268 3108.6461248508945 333.33333333333337
v 2832.9435340825053 3060.8035810356746 333.33333333333337
v 2820.2925408644373 3005.704618346117 333.33333333333337
v 2825.5467320700914 2948.7758987561037 333.33333333333337
v 2848.576628464414 2895.7526310878548 333.33333333333337
v 2887.442239966332 2852.1008296387145 333.33333333333337
v 2938.5508674979387 2822.454391635426 333.33333333333337
v 2996.987069493996 2810.1249131285977 333.33333333333337
v 3056.9847184973455 2816.7359334602284 333.33333333333337
v 3112.4958854925962 2842.021633541753 333.33333333333337
v 3157.8004343040657 2883.8140017812116 333.33333333333337
v 3188.094887956793 2938.223681457673 333.33333333333337
v 3200.0 2999.9999999999995 333.33333333333337
v 3000.0 3000.0 444.44444444444446
v 3001.919335591396 3000.6303705973705 444.44444444444446
v 3003.2536172021455 3002.39558759214 444.44444444444446
v 3003.5154964216435 3004.9368239518203 444.44444444444446
v 3002.3993565683095 3007.716381749043 444.44444444444446
v 2999.8397377390424 3010.0997386633726 444.44444444444446
v 2996.035539838577 3011.4545553783596 444.44444444444446
v 2991.435822606134 3011.2531977448803 444.44444444444446
v 2986.688055249619 3009.1646038604085 444.44444444444446
v 2982.5546732070093 3005.1224101243897 444.44444444444446
v 2979.8081506589256 2999.359031646504 444.44444444444446
v 2979.117941760313 2992.3995523705407 444.44444444444446
v 2980.944167400175 2985.0143276067733 444.44444444444446
v 2985.4526043833143 2978.134529070198 444.44444444444446
v 2992.4633668855345 2972.7398177376986 444.44444444444446
v 3001.4418762370833 2969.73129275203 444.44444444444446
v 3011.5357162534747 2969.8053216884005 444.44444444444446
v 3021.655344122095 2973.3444648627074 444.44444444444446
v 3030.5910375574977 2980.3403339107053 444.44444444444446
v 3037.153586518244 2990.359976249615 444.44444444444446
v 3040.322693998864 3002.5625826123864 444.44444444444446
v 3039.3853062491667 3015.767498118923 444.44444444444446
v 3034.0464196941766 3028.5683382082907 444.44444444444446
v 3024.49734495968 3039.482191694624 444.44444444444446
v 3011.430736267124 3047.11813664599 444.44444444444446
v 2995.997476926425 3050.3462008056536 444.44444444444446
v 2979.707124711068 3048.4468922155943 444.44444444444446
v 2964.2803236029845 3041.222704055687 444.44444444444446
v 2951.4676049079203 3029.0564989172835 444.44444444444446
v 2942.8536084450975 3012.9070817188076 444.44444444444446
v 2939.668368328904 2994.2390276785345 444.44444444444446
v 2942.627551150719 2974.8912189947373 444.44444444444446
v 2951.8212881017694 2956.895741380765 444.44444444444446
v 2966.6666666666665 2942.2649730810376 444.44444444444446
v 2985.932471284411 2932.7691249064596 444.44444444444446
v 3007.837044437445 2929.7285934219317 444.44444444444446
v 3030.2120009455916 2933.8449457923984 444.44444444444446
v 3050.7168651062907 2945.0911248074167 444.44444444444446
v 3067.083386522529 2962.6758061175397 444.44444444444446
v 3077.3640791782736 2985.0892958988766 444.44444444444446
v 3080.1579646731957 3010.2296932180807 444.44444444444446
v 3074.7878546863667 3035.5991745366787 444.44444444444446
v 3061.4077365664907 3058.5521585499973 444.44444444444446
v 3041.0255681115664 3076.5706962186787 444.44444444444446
v 3015.435393570394 3087.5384669344185 444.44444444444446
v 2987.0622874297014 3089.9837674437213 444.44444444444446
v 2958.7332036770395 3083.264067913942 444.44444444444446
v 2933.395313692531 3067.669951625872 444.44444444444446
v 2913.8098958880073 3044.4340869553853 444.44444444444446
v 2902.2535241512255 3015.640542227665 444.44444444444446
v 2900.2586981134955 2984.040263032995 444.44444444444446
v 2908.4230143810078 2952.788782609903 444.44444444444446
v 2926.3097087662045 2925.1311173500994 444.44444444444446
v 2952.453473801806 2904.0653130556752 444.44444444444446
v 2984.4747449156416 2892.0194790675346 444.44444444444446
v 3019.294241962992 2890.576916331977 444.44444444444446
v 3053.42864684297 2900.2800235291625 444.44444444444446
v 3083.339071054523 2920.536356253575 444.44444444444446
v 3105.7974529709577 2949.6401921188444 444.44444444444446
v 3118.2329978929633 2984.911202503331 444.44444444444446
v 3119.0216602742676 3022.939544770959 444.44444444444446
v 3107.686488891428 3059.9151533376335 444.44444444444446
v 3084.985017205136 3092.0094665389233 444.44444444444446
v 3052.8710016547857 3115.771344863302 444.44444444444446
v 3014.3305955427572 3128.4962863141823 444.44444444444446
v 2973.106195102551 3128.5296141494155 444.44444444444446
v 2933.3333333333335 3115.470053837925 444.44444444444446
v 2899.12582196308 3090.2495414840237 444.44444444444446
v 2874.1507573628674 3055.07732607606 444.44444444444446
v 2861.237247156479 3013.250236339371 444.44444444444446
v 2862.060434177821 2968.8449751614994 444.44444444444446
v 2876.935712445084 2926.3210206026024 444.44444444444446
v 2904.7475296079588 2890.072789184835 444.44444444444446
v 2943.023850150306 2863.976033394678 444.44444444444446
v 2988.1525317022174 2850.975245615265 444.44444444444446
v 3035.7210508347616 2852.7558229812817 444.44444444444446
v 3080.9477485624207 2869.537105704721 444.44444444444446
v 3119.1624689296186 2900.0108162709826 444.44444444444446
v 3146.288280354048 2941.4350069868574 444.44444444444446
v 3159.274641295513 2989.8777986810733 444.44444444444446
v 3156.4361537610275 3040.5895736858306 444.44444444444446
v 3137.659669008739 3088.468497401825 444.44444444444446
v 3104.4551892948098 3128.5737577210584 444.44444444444446
v 3059.8415280648996 3156.634893741422 444.44444444444446
v 3008.0745069276654 3169.5047605886316 444.44444444444446
v 2954.2418703764592 3165.5082494496874 444.44444444444446
v 2903.763382843464 3144.648499997152 444.44444444444446
v 2861.845213651268 3108.6461248508945 444.44444444444446
v 2832.9435340825053 3060.8035810356746 444.44444444444446
v 2820.2925408644373 3005.704618346117 444.44444444444446
v 2825.5467320700914 2948.7758987561037 444.44444444444446
v 2848.576628464414 2895.7526310878548 444.44444444444446
v 2887.442239966332 2852.1008296387145 444.44444444444446
v 2938.5508674979387 2822.454391635426 444.44444444444446
v 2996.987069493996 2810.1249131285977 444.44444444444446
v 3056.9847184973455 2816.7359334602284 444.44444444444446
v 3112.4958854925962 2842.021633541753 444.44444444444446
v 3157.8004343040657 2883.8140017812116 444.44444444444446
v 3188.094887956793 2938.223681457673 444.44444444444446
v 3200.0 2999.9999999999995 444.44444444444446
v 3000.0 3000.0 555.5555555555555
v 3001.919335591396 3000.6303705973705 555.5555555555555
v 3003.2536172021455 3002.39558759214 555.5555555555555
v 3003.5154964216435 3004.9368239518203 555.5555555555555
v 3002.3993565683095 3007.716381749043 555.5555555555555
v 2999.8397377390424 3010.0997386633726 555.5555555555555
v 2996.035539838577 3011.4545553783596 555.5555555555555
v 2991.435822606134 3011.2531977448803 555.5555555555555
v 2986.688055249619 3009.1646038604085 555.5555555555555
v 2982.5546732070093 3005.1224101243897 555.5555555555555
v 2979.8081506589256 2999.359031646504 555.5555555555555
v 2979.117941760313 2992.3995523705407 555.5555555555555
v 2980.944167400175 2985.0143276067733 555.5555555555555
v 2985.4526043833143 2978.134529070198 555.5555555555555
v 2992.4633668855345 2972.7398177376986 555.5555555555555
v 3001.4418762370833 2969.73129275203 555.5555555555555
v 3011.5357162534747 2969.8053216884005 555.5555555555555
v 3021.655344122095 2973.3444648627074 555.5555555555555
v 3030.5910375574977 2980.3403339107053 555.5555555555555
v 3037.153586518244 2990.359976249615 555.5555555555555
v 3040.322693998864 3002.5625826123864 555.5555555555555
v 3039.3853062491667 3015.767498118923 555.5555555555555
v 3034.0464196941766 3028.5683382082907 555.5555555555555
v 3024.49734495968 3039.482191694624 555.5555555555555
v 3011.430736267124 3047.11813664599 555.5555555555555
v 2995.997476926425 3050.3462008056536 555.5555555555555
v 2979.707124711068 3048.4468922155943 555.5555555555555
v 2964.2803236029845 3041.222704055687 555.5555555555555
v 2951.4676049079203 3029.0564989172835 555.5555555555555
v 2942.8536084450975 3012.9070817188076 555.5555555555555
v 2939.668368328904 2994.2390276785345 555.5555555555555
v 2942.627551150719 2974.8912189947373 555.5555555555555
v 2951.8212881017694 2956.895741380765 555.5555555555555
v 2966.6666666666665 2942.2649730810376 555.5555555555555
v 2985.932471284411 2932.7691249064596 555.5555555555555
v 3007.837044437445 2929.7285934219317 555.5555555555555
v 3030.2120009455916 2933.8449457923984 555.5555555555555
v 3050.7168651062907 2945.0911248074167 555.5555555555555
v 3067.083386522529 2962.6758061175397 555.5555555555555
v 3077.3640791782736 2985.0892958988766 555.5555555555555
v 3080.1579646731957 3010.2296932180807 555.5555555555555
v 3074.7878546863667 3035.5991745366787 555.5555555555555
v 3061.4077365664907 3058.5521585499973 555.5555555555555
v 3041.0255681115664 3076.5706962186787 555.5555555555555
v 3015.435393570394 3087.5384669344185 555.5555555555555
v 2987.0622874297014 3089.9837674437213 555.5555555555555
v 2958.7332036770395 3083.264067913942 555.5555555555555
v 2933.395313692531 3067.669951625872 555.5555555555555
v 2913.8098958880073 3044.4340869553853 555.5555555555555
v 2902.2535241512255 3015.640542227665 555.5555555555555
v 2900.2586981134955 2984.040263032995 555.5555555555555
v 2908.4230143810078 2952.788782609903 555.5555555555555
v 2926.3097087662045 2925.1311173500994 555.5555555555555
v 2952.453473801806 2904.0653130556752 555.5555555555555
v 2984.4747449156416 2892.0194790675346 555.5555555555555
v 3019.294241962992 2890.576916331977 555.5555555555555
v 3053.42864684297 2900.2800235291625 555.5555555555555
v 3083.339071054523 2920.536356253575 555.5555555555555
v 3105.7974529709577 2949.6401921188444 555.5555555555555
v 3118.2329978929633 2984.911202503331 555.5555555555555
v 3119.0216602742676 3022.939544770959 555.5555555555555
v 3107.686488891428 3059.9151533376335 555.5555555555555
v 3084.985017205136 3092.0094665389233 555.5555555555555
v 3052.8710016547857 3115.771344863302 555.5555555555555
v 3014.3305955427572 3128.4962863141823 555.5555555555555
v 2973.106195102551 3128.5296141494155 555.5555555555555
v 2933.3333333333335 3115.470053837925 555.5555555555555
v 2899.12582196308 3090.2495414840237 555.5555555555555
v 2874.1507573628674 3055.07732607606 555.5555555555555
v 2861.237247156479 3013.250236339371 555.5555555555555
v 2862.060434177821 2968.8449751614994 555.5555555555555
v 2876.935712445084 2926.3210206026024 555.5555555555555
v 2904.7475296079588 2890.072789184835 555.5555555555555
v 2943.023850150306 2863.976033394678 555.5555555555555
v 2988.1525317022174 2850.975245615265 555.5555555555555
v 3035.7210508347616 2852.7558229812817 555.5555555555555
v 3080.9477485624207 2869.537105704721 555.5555555555555
v 3119.1624689296186 2900.0108162709826 555.5555555555555
v 3146.288280354048 2941.4350069868574 555.5555555555555
v 3159.274641295513 2989.8777986810733 555.5555555555555
v 3156.4361537610275 3040.5895736858306 555.5555555555555
v 3137.659669008739 3088.468497401825 555.5555555555555
v 3104.4551892948098 3128.5737577210584 555.5555555555555
v 3059.8415280648996 3156.634893741422 555.5555555555555
v 3008.0745069276654 3169.5047605886316 555.5555555555555
v 2954.2418703764592 3165.5082494496874 555.5555555555555
v 2903.763382843464 3144.648499997152 555.5555555555555
v 2861.845213651268 3108.6461248508945 555.5555555555555
v 2832.9435340825053 3060.8035810356746 555.5555555555555
v 2820.2925408644373 3005.704618346117 555.5555555555555
v 2825.5467320700914 2948.7758987561037 555.5555555555555
v 2848.576628464414 2895.7526310878548 555.5555555555555
v 2887.442239966332 2852.1008296387145 555.5555555555555
v 2938.5508674979387 2822.454391635426 555.5555555555555
v 2996.987069493996 2810.1249131285977 555.5555555555555
v 3056.9847184973455 2816.7359334602284 555.5555555555555
v 3112.4958854925962 2842.021633541753 555.5555555555555
v 3157.8004343040657 2883.8140017812116 555.5555555555555
v 3188.094887956793 2938.223681457673 555.5555555555555
v 3200.0 2999.9999999999995 555.5555555555555
v 3000.0 3000.0 666.6666666666667
v 3001.919335591396 3000.6303705973705 666.6666666666667
v 3003.2536172021455 3002.39558759214 666.6666666666667
v 3003.5154964216435 3004.9368239518203 666.6666666666667
v 3002.3993565683095 3007.716381749043 666.6666666666667
v 2999.8397377390424 3010.0997386633726 666.6666666666667
v 2996.035539838577 3011.4545553783596 666.6666666666667
v 2991.435822606134 3011.2531977448803 666.6666666666667
v 2986.688055249619 3009.1646038604085 666.6666666666667
v 2982.5546732070093 3005.1224101243897 666.6666666666667
v 2979.8081506589256 2999.359031646504 666.6666666666667
v 2979.117941760313 2992.3995523705407 666.6666666666667
v 2980.944167400175 2985.0143276067733 666.6666666666667
v 2985.4526043833143 2978.134529070198 666.6666666666667
v 2992.4633668855345 2972.7398177376986 666.6666666666667
v 3001.4418762370833 2969.73129275203 666.6666666666667
v 3011.5357162534747 2969.8053216884005 666.6666666666667
v 3021.655344122095 2973.3444648627074 666.6666666666667
v 3030.5910375574977 2980.3403339107053 666.6666666666667
v 3037.153586518244 2990.359976249615 666.6666666666667
v 3040.322693998864 3002.5625826123864 666.6666666666667
v 3039.3853062491667 3015.767498118923 666.6666666666667
v 3034.0464196941766 3028.5683382082907 666.6666666666667
v 3024.49734495968 3039.482191694624 666.6666666666667
v 3011.430736267124 3047.11813664599 666.6666666666667
v 2995.997476926425 3050.3462008056536 666.6666666666667
v 2979.707124711068 3048.4468922155943 666.6666666666667
v 2964.2803236029845 3041.222704055687 666.6666666666667
v 2951.4676049079203 3029.0564989172835 666.6666666666667
v 2942.8536084450975 3012.9070817188076 666.6666666666667
v 2939.668368328904 2994.2390276785345 666.6666666666667
v 2942.627551150719 2974.8912189947373 666.6666666666667
v 2951.8212881017694 2956.895741380765 666.6666666666667
v 2966.6666666666665 2942.2649730810376 666.6666666666667
v 2985.932471284411 2932.7691249064596 666.6666666666667
v 3007.837044437445 2929.7285934219317 666.6666666666667
v 3030.2120009455916 2933.8449457923984 666.6666666666667
v 3050.7168651062907 2945.0911248074167 666.6666666666667
v 3067.083386522529 2962.6758061175397 666.6666666666667
v 3077.3640791782736 2985.0892958988766 666.6666666666667
v 3080.1579646731957 3010.2296932180807 666.6666666666667
v 3074.7878546863667 3035.5991745366787 666.6666666666667
v 3061.4077365664907 3058.5521585499973 666.6666666666667
v 3041.0255681115664 3076.5706962186787 666.6666666666667
v 3015.435393570394 3087.5384669344185 666.6666666666667
v 2987.0622874297014 3089.9837674437213 666.6666666666667
v 2958.7332036770395 3083.264067913942 666.6666666666667
v 2933.395313692531 3067.669951625872 666.6666666666667
v 2913.8098958880073 3044.4340869553853 666.6666666666667
v 2902.2535241512255 3015.640542227665 666.6666666666667
v 2900.2586981134955 2984.040263032995 666.6666666666667
v 2908.4230143810078 2952.788782609903 666.6666666666667
v 2926.3097087662045 2925.1311173500994 666.6666666666667
v 2952.453473801806 2904.0653130556752 666.6666666666667
v 2984.4747449156416 2892.0194790675346 666.6666666666667
v 3019.294241962992 2890.576916331977 666.6666666666667
v 3053.42864684297 2900.2800235291625 666.6666666666667
v 3083.339071054523 2920.536356253575 666.6666666666667
v 3105.7974529709577 2949.6401921188444 666.6666666666667
v 3118.2329978929633 2984.911202503331 666.6666666666667
v 3119.0216602742676 3022.939544770959 666.6666666666667
v 3107.686488891428 3059.9151533376335 666.6666666666667
v 3084.985017205136 3092.0094665389233 666.6666666666667
v 3052.8710016547857 3115.771344863302 666.6666666666667
v 3014.3305955427572 3128.4962863141823 666.6666666666667
v 2973.106195102551 3128.5296141494155 666.6666666666667
v 2933.3333333333335 3115.470053837925 666.6666666666667
v 2899.12582196308 3090.2495414840237 666.6666666666667
v 2874.1507573628674 3055.07732607606 666.6666666666667
v 2861.237247156479 3013.250236339371 666.6666666666667
v 2862.060434177821 2968.8449751614994 666.6666666666667
v 2876.935712445084 2926.3210206026024 666.6666666666667
v 2904.7475296079588 2890.072789184835 666.6666666666667
v 2943.023850150306 2863.976033394678 666.6666666666667
v 2988.1525317022174 2850.975245615265 666.6666666666667
v 3035.7210508347616 2852.7558229812817 666.6666666666667
v 3080.9477485624207 2869.537105704721 666.6666666666667
v 3119.1624689296186 2900.0108162709826 666.6666666666667
v 3146.288280354048 2941.4350069868574 666.6666666666667
v 3159.274641295513 2989.8777986810733 666.6666666666667
v 3156.4361537610275 3040.5895736858306 666.6666666666667
v 3137.659669008739 3088.468497401825 666.6666666666667
v 3104.4551892948098 3128.5737577210584 666.6666666666667
v 3059.8415280648996 3156.634893741422 666.6666666666667
v 3008.0745069276654 3169.5047605886316 666.6666666666667
v 2954.2418703764592 3165.5082494496874 666.6666666666667
v 2903.763382843464 3144.648499997152 666.6666666666667
v 2861.845213651268 3108.6461248508945 666.6666666666667
v 2832.9435340825053 3060.8035810356746 666.6666666666667
v 2820.2925408644373 3005.704618346117 666.6666666666667
v 2825.5467320700914 2948.7758987561037 666.6666666666667
v 2848.576628464414 2895.7526310878548 666.6666666666667
v 2887.442239966332 2852.1008296387145 666.6666666666667
v 2938.5508674979387 2822.454391635426 666.6666666666667
v 2996.987069493996 2810.1249131285977 666.6666666666667
v 3056.9847184973455 2816.7359334602284 666.6666666666667
v 3112.4958854925962 2842.021633541753 666.6666666666667
v 3157.8004343040657 2883.8140017812116 666.6666666666667
v 3188.094887956793 2938.223681457673 666.6666666666667
v 3200.0 2999.9999999999995 666.6666666666667
v 3000.0 3000.0 777.7777777777778
v 3001.919335591396 3000.6303705973705 777.7777777777778
v 3003.2536172021455 3002.39558759214 777.7777777777778
v 3003.5154964216435 3004.9368239518203 777.7777777777778
v 3002.3993565683095 3007.716381749043 777.7777777777778
v 2999.8397377390424 3010.0997386633726 777.7777777777778
v 2996.035539838577 3011.4545553783596 777.7777777777778
v 2991.435822606134 3011.2531977448803 777.7777777777778
v 2986.688055249619 3009.1646038604085 777.7777777777778
v 2982.5546732070093 3005.1224101243897 777.7777777777778
v 2979.8081506589256 2999.359031646504 777.7777777777778
v 2979.117941760313 2992.3995523705407 777.7777777777778
v 2980.944167400175 2985.0143276067733 777.7777777777778
v 2985.4526043833143 2978.134529070198 777.7777777777778
v 2992.4633668855345 2972.7398177376986 777.7777777777778
v 3001.4418762370833 2969.73129275203 777.7777777777778
v 3011.5357162534747 2969.8053216884005 777.7777777777778
v 3021.655344122095 2973.3444648627074 777.7777777777778
v 3030.5910375574977 2980.3403339107053 777.7777777777778
v 3037.153586518244 2990.359976249615 777.7777777777778
v 3040.322693998864 3002.5625826123864 777.7777777777778
v 3039.3853062491667 3015.767498118923 777.7777777777778
v 3034.0464196941766 3028.5683382082907 777.7777777777778
v 3024.49734495968 3039.482191694624 777.7777777777778
v 3011.430736267124 3047.11813664599 777.7777777777778
v 2995.997476926425 3050.3462008056536 777.7777777777778
v 2979.707124711068 3048.4468922155943 777.7777777777778
v 2964.2803236029845 3041.222704055687 777.7777777777778
v 2951.4676049079203 3029.0564989172835 777.7777777777778
v 2942.8536084450975 3012.9070817188076 777.7777777777778
v 2939.668368328904 2994.2390276785345 777.7777777777778
v 2942.627551150719 2974.8912189947373 777.7777777777778
v 2951.8212881017694 2956.895741380765 777.7777777777778
v 2966.6666666666665 2942.2649730810376 777.7777777777778
v 2985.932471284411 2932.7691249064596 777.7777777777778
v 3007.837044437445 2929.7285934219317 777.7777777777778
v 3030.2120009455916 2933.8449457923984 777.7777777777778
v 3050.7168651062907 2945.0911248074167 777.7777777777778
v 3067.083386522529 2962.6758061175397 777.7777777777778
v 3077.3640791782736 2985.0892958988766 777.7777777777778
v 3080.1579646731957 3010.2296932180807 777.7777777777778
v 3074.7878546863667 3035.5991745366787 777.7777777777778
v 3061.4077365664907 3058.5521585499973 777.7777777777778
v 3041.0255681115664 3076.5706962186787 777.7777777777778
v 3015.435393570394 3087.5384669344185 777.7777777777778
v 2987.0622874297014 3089.9837674437213 777.7777777777778
v 2958.7332036770395 3083.264067913942 777.7777777777778
v 2933.395313692531 3067.669951625872 777.7777777777778
v 2913.8098958880073 3044.4340869553853 777.7777777777778
v 2902.2535241512255 3015.640542227665 777.7777777777778
v 2900.2586981134955 2984.040263032995 777.7777777777778
v 2908.4230143810078 2952.788782609903 777.7777777777778
v 2926.3097087662045 2925.1311173500994 777.7777777777778
v 2952.453473801806 2904.0653130556752 777.7777777777778
v 2984.4747449156416 2892.0194790675346 777.7777777777778
v 3019.294241962992 2890.576916331977 777.7777777777778
v 3053.42864684297 2900.2800235291625 777.7777777777778
v 3083.339071054523 2920.536356253575 777.7777777777778
v 3105.7974529709577 2949.6401921188444 777.7777777777778
v 3118.2329978929633 2984.911202503331 777.7777777777778
v 3119.0216602742676 3022.939544770959 777.7777777777778
v 3107.686488891428 3059.9151533376335 777.7777777777778
v 3084.985017205136 3092.0094665389233 777.7777777777778
v 3052.8710016547857 3115.771344863302 777.7777777777778
v 3014.3305955427572 3128.4962863141823 777.7777777777778
v 2973.106195102551 3128.5296141494155 777.7777777777778
v 2933.3333333333335 3115.470053837925 777.7777777777778
v 2899.12582196308 3090.2495414840237 777.7777777777778
v 2874.1507573628674 3055.07732607606 777.7777777777778
v 2861.237247156479 3013.250236339371 777.7777777777778
v 2862.060434177821 2968.8449751614994 777.7777777777778
v 2876.935712445084 2926.3210206026024 777.7777777777778
v 2904.7475296079588 2890.072789184835 777.7777777777778
v 2943.023850150306 2863.976033394678 777.7777777777778
v 2988.1525317022174 2850.975245615265 777.7777777777778
v 3035.7210508347616 2852.7558229812817 777.7777777777778
v 3080.9477485624207 2869.537105704721 777.7777777777778
v 3119.1624689296186 2900.0108162709826 777.7777777777778
v 3146.288280354048 2941.4350069868574 777.7777777777778
v 3159.274641295513 2989.8777986810733 777.7777777777778
v 3156.4361537610275 3040.5895736858306 777.7777777777778
v 3137.659669008739 3088.468497401825 777.7777777777778
v 3104.4551892948098 3128.5737577210584 777.7777777777778
v 3059.8415280648996 3156.634893741422 777.7777777777778
v 3008.0745069276654 3169.5047605886316 777.7777777777778
v 2954.2418703764592 3165.5082494496874 777.7777777777778
v 2903.763382843464 3144.648499997152 777.7777777777778
v 2861.845213651268 3108.6461248508945 777.7777777777778
v 2832.9435340825053 3060.8035810356746 777.7777777777778
v 2820.2925408644373 3005.704618346117 777.7777777777778
v 2825.5467320700914 2948.7758987561037 777.7777777777778
v 2848.576628464414 2895.7526310878548 777.7777777777778
v 2887.442239966332 2852.1008296387145 777.7777777777778
v 2938.5508674979387 2822.454391635426 777.7777777777778
v 2996.987069493996 2810.1249131285977 777.7777777777778
v 3056.9847184973455 2816.7359334602284 777.7777777777778
v 3112.4958854925962 2842.021633541753 777.7777777777778
v 3157.8004343040657 2883.8140017812116 777.7777777777778
v 3188.094887956793 2938.223681457673 777.7777777777778
v 3200.0 2999.9999999999995 777.7777777777778
v 3000.0 3000.0 888.8888888888889
v 3001.919335591396 3000.6303705973705 888.8888888888889
v 3003.2536172021455 3002.39558759214 888.8888888888889
v 3003.5154964216435 3004.9368239518203 888.8888888888889
v 3002.3993565683095 3007.716381749043 888.8888888888889
v 2999.8397377390424 3010.0997386633726 888.8888888888889
v 2996.035539838577 3011.4545553783596 888.8888888888889
v 2991.435822606134 3011.2531977448803 888.8888888888889
v 2986.688055249619 3009.1646038604085 888.8888888888889
v 2982.5546732070093 3005.1224101243897 888.8888888888889
v 2979.8081506589256 2999.359031646504 888.8888888888889
v 2979.117941760313 2992.3995523705407 888.8888888888889
v 2980.944167400175 2985.0143276067733 888.8888888888889
v 2985.4526043833143 2978.134529070198 888.8888888888889
v 2992.4633668855345 2972.7398177376986 888.8888888888889
v 3001.4418762370833 2969.73129275203 888.8888888888889
v 3011.5357162534747 2969.8053216884005 888.8888888888889
v 3021.655344122095 2973.3444648627074 888.8888888888889
v 3030.5910375574977 2980.3403339107053 888.8888888888889
v 3037.153586518244 2990.359976249615 888.8888888888889
v 3040.322693998864 3002.5625826123864 888.8888888888889
v 3039.3853062491667 3015.767498118923 888.8888888888889
v 3034.0464196941766 3028.5683382082907 888.8888888888889
v 3024.49734495968 3039.482191694624 888.8888888888889
v 3011.430736267124 3047.11813664599 888.8888888888889
v 2995.997476926425 3050.3462008056536 888.8888888888889
v 2979.707124711068 3048.4468922155943 888.8888888888889
v 2964.2803236029845 3041.222704055687 888.8888888888889
v 2951.4676049079203 3029.0564989172835 888.8888888888889
v 2942.8536084450975 3012.9070817188076 888.8888888888889
v 2939.668368328904 2994.2390276785345 888.8888888888889
v 2942.627551150719 2974.8912189947373 888.8888888888889
v 2951.8212881017694 2956.895741380765 888.8888888888889
v 2966.6666666666665 2942.2649730810376 888.8888888888889
v 2985.932471284411 2932.7691249064596 888.8888888888889
v 3007.837044437445 2929.7285934219317 888.8888888888889
v 3030.2120009455916 2933.8449457923984 888.8888888888889
v 3050.7168651062907 2945.0911248074167 888.8888888888889
v 3067.083386522529 2962.6758061175397 888.8888888888889
v 3077.3640791782736 2985.0892958988766 888.8888888888889
v 3080.1579646731957 3010.2296932180807 888.8888888888889
v 3074.7878546863667 3035.5991745366787 888.8888888888889
v 3061.4077365664907 3058.5521585499973 888.8888888888889
v 3041.0255681115664 3076.5706962186787 888.8888888888889
v 3015.435393570394 3087.5384669344185 888.8888888888889
v 2987.0622874297014 3089.9837674437213 888.8888888888889
v 2958.7332036770395 3083.264067913942 888.8888888888889
v 2933.395313692531 3067.669951625872 888.8888888888889
v 2913.8098958880073 3044.4340869553853 888.8888888888889
v 2902.2535241512255 3015.640542227665 888.8888888888889
v 2900.2586981134955 2984.040263032995 888.8888888888889
v 2908.4230143810078 2952.788782609903 888.8888888888889
v 2926.3097087662045 2925.1311173500994 888.8888888888889
v 2952.453473801806 2904.0653130556752 888.8888888888889
v 2984.4747449156416 2892.0194790675346 888.8888888888889
v 3019.294241962992 2890.576916331977 888.8888888888889
v 3053.42864684297 2900.2800235291625 888.8888888888889
v 3083.339071054523 2920.536356253575 888.8888888888889
v 3105.7974529709577 2949.6401921188444 888.8888888888889
v 3118.2329978929633 2984.911202503331 888.8888888888889
v 3119.0216602742676 3022.939544770959 888.8888888888889
v 3107.686488891428 3059.9151533376335 888.8888888888889
v 3084.985017205136 3092.0094665389233 888.8888888888889
v 3052.8710016547857 3115.771344863302 888.8888888888889
v 3014.3305955427572 3128.4962863141823 888.8888888888889
v 2973.106195102551 3128.5296141494155 888.8888888888889
v 2933.3333333333335 3115.470053837925 888.8888888888889
v 2899.12582196308 3090.2495414840237 888.8888888888889
v 2874.1507573628674 3055.07732607606 888.8888888888889
v 2861.237247156479 3013.250236339371 888.8888888888889
v 2862.060434177821 2968.8449751614994 888.8888888888889
v 2876.935712445084 2926.3210206026024 888.8888888888889
v 2904.7475296079588 2890.072789184835 888.8888888888889
v 2943.023850150306 2863.976033394678 888.8888888888889
v 2988.1525317022174 2850.975245615265 888.8888888888889
v 3035.7210508347616 2852.7558229812817 888.8888888888889
v 3080.9477485624207 2869.537105704721 888.8888888888889
v 3119.1624689296186 2900.0108162709826 888.8888888888889
v 3146.288280354048 2941.4350069868574 888.8888888888889
v 3159.274641295513 2989.8777986810733 888.8888888888889
v 3156.4361537610275 3040.5895736858306 888.8888888888889
v 3137.659669008739 3088.468497401825 888.8888888888889
v 3104.4551892948098 3128.5737577210584 888.8888888888889
v 3059.8415280648996 3156.634893741422 888.8888888888889
v 3008.0745069276654 3169.5047605886316 888.8888888888889
v 2954.2418703764592 3165.5082494496874 888.8888888888889
v 2903.763382843464 3144.648499997152 888.8888888888889
v 2861.845213651268 3108.6461248508945 888.8888888888889
v 2832.9435340825053 3060.8035810356746 888.8888888888889
v 2820.2925408644373 3005.704618346117 888.8888888888889
v 2825.5467320700914 2948.7758987561037 888.8888888888889
v 2848.576628464414 2895.7526310878548 888.8888888888889
v 2887.442239966332 2852.1008296387145 888.8888888888889
v 2938.5508674979387 2822.454391635426 888.8888888888889
v 2996.987069493996 2810.1249131285977 888.8888888888889
v 3056.9847184973455 2816.7359334602284 888.8888888888889
v 3112.4958854925962 2842.021633541753 888.8888888888889
v 3157.8004343040657 2883.8140017812116 888.8888888888889
v 3188.094887956793 2938.223681457673 888.8888888888889
v 3200.0 2999.9999999999995 888.8888888888889
v 3000.0 3000.0 1000.0
v 3001.919335591396 3000.6303705973705 1000.0
v 3003.2536172021455 3002.39558759214 1000.0
v 3003.5154964216435 3004.9368239518203 1000.0
v 3002.3993565683095 3007.716381749043 1000.0
v 2999.8397377390424 3010.0997386633726 1000.0
v 2996.035539838577 3011.4545553783596 1000.0
v 2991.435822606134 3011.2531977448803 1000.0
v 2986.688055249619 3009.1646038604085 1000.0
v 2982.5546732070093 3005.1224101243897 1000.0
v 2979.8081506589256 2999.359031646504 1000.0
v 2979.117941760313 2992.3995523705407 1000.0
v 2980.944167400175 2985.0143276067733 1000.0
v 2985.4526043833143 2978.134529070198 1000.0
v 2992.4633668855345 2972.7398177376986 1000.0
v 3001.4418762370833 2969.73129275203 1000.0
v 3011.5357162534747 2969.8053216884005 1000.0
v 3021.655344122095 2973.3444648627074 1000.0
v 3030.5910375574977 2980.3403339107053 1000.0
v 3037.153586518244 2990.359976249615 1000.0
v 3040.322693998864 3002.5625826123864 1000.0
v 3039.3853062491667 3015.767498118923 1000.0
v 3034.0464196941766 3028.5683382082907 1000.0
v 3024.49734495968 3039.482191694624 1000.0
v 3011.430736267124 3047.11813664599 1000.0
v 2995.997476926425 3050.3462008056536 1000.0
v 2979.707124711068 3048.4468922155943 1000.0
v 2964.2803236029845 3041.222704055687 1000.0
v 2951.4676049079203 3029.0564989172835 1000.0
v 2942.8536084450975 3012.9070817188076 1000.0
v 2939.668368328904 2994.2390276785345 1000.0
v 2942.627551150719 2974.8912189947373 1000.0
v 2951.8212881017694 2956.895741380765 1000.0
v 2966.6666666666665 2942.2649730810376 1000.0
v 2985.932471284411 2932.7691249064596 1000.0
v 3007.837044437445 2929.7285934219317 1000.0
v 3030.2120009455916 2933.8449457923984 1000.0
v 3050.7168651062907 2945.0911248074167 1000.0
v 3067.083386522529 2962.6758061175397 1000.0
v 3077.3640791782736 2985.0892958988766 1000.0
v 3080.1579646731957 3010.2296932180807 1000.0
v 3074.7878546863667 3035.5991745366787 1000.0
v 3061.4077365664907 3058.5521585499973 1000.0
v 3041.0255681115664 3076.5706962186787 1000.0
v 3015.435393570394 3087.5384669344185 1000.0
v 2987.0622874297014 3089.9837674437213 1000.0
v 2958.7332036770395 3083.264067913942 1000.0
v 2933.395313692531 3067.669951625872 1000.0
v 2913.8098958880073 3044.4340869553853 1000.0
v 2902.2535241512255 3015.640542227665 1000.0
v 2900.2586981134955 2984.040263032995 1000.0
v 2908.4230143810078 2952.788782609903 1000.0
v 2926.3097087662045 2925.1311173500994 1000.0
v 2952.453473801806 2904.0653130556752 1000.0
v 2984.4747449156416 2892.0194790675346 1000.0
v 3019.294241962992 2890.576916331977 1000.0
v 3053.42864684297 2900.2800235291625 1000.0
v 3083.339071054523 2920.536356253575 1000.0
v 3105.7974529709577 2949.6401921188444 1000.0
v 3118.2329978929633 2984.911202503331 1000.0
v 3119.0216602742676 3022.939544770959 1000.0
v 3107.686488891428 3059.9151533376335 1000.0
v 3084.985017205136 3092.0094665389233 1000.0
v 3052.8710016547857 3115.771344863302 1000.0
v 3014.3305955427572 3128.4962863141823 1000.0
v 2973.106195102551 3128.5296141494155 1000.0
v 2933.3333333333335 3115.470053837925 1000.0
v 2899.12582196308 3090.2495414840237 1000.0
v 2874.1507573628674 3055.07732607606 1000.0
v 2861.237247156479 3013.250236339371 1000.0
v 2862.060434177821 2968.8449751614994 1000.0
v 2876.935712445084 2926.3210206026024 1000.0
v 2904.7475296079588 2890.072789184835 1000.0
v 2943.023850150306 2863.976033394678 1000.0
v 2988.1525317022174 2850.975245615265 1000.0
v 3035.7210508347616 2852.7558229812817 1000.0
v 3080.9477485624207 2869.537105704721 1000.0
v 3119.1624689296186 2900.0108162709826 1000.0
v 3146.288280354048 2941.4350069868574 1000.0
v 3159.274641295513 2989.8777986810733 1000.0
v 3156.4361537610275 3040.5895736858306 1000.0
v 3137.659669008739 3088.468497401825 1000.0
v 3104.4551892948098 3128.5737577210584 1000.0
v 3059.8415280648996 3156.634893741422 1000.0
v 3008.0745069276654 3169.5047605886316 1000.0
v 2954.2418703764592 3165.5082494496874 1000.0
v 2903.763382843464 3144.648499997152 1000.0
v 2861.845213651268 3108.6461248508945 1000.0
v 2832.9435340825053 3060.8035810356746 1000.0
v 2820.2925408644373 3005.704618346117 1000.0
v 2825.5467320700914 2948.7758987561037 1000.0
v 2848.576628464414 2895.7526310878548 1000.0
v 2887.442239966332 2852.1008296387145 1000.0
v 2938.5508674979387 2822.454391635426 1000.0
v 2996.987069493996 2810.1249131285977 1000.0
v 3056.9847184973455 2816.7359334602284 1000.0
v 3112.4958854925962 2842.021633541753 1000.0
v 3157.8004343040657 2883.8140017812116 1000.0
v 3188.094887956793 2938.223681457673 1000.0
v 3200.0 2999.9999999999995 1000.0
f 1 2 102
f 1 102 101
f 2 3 103
f 2 103 102
f 3 4 104
f 3 104 103
f 4 5 105
f 4 105 104
f 5 6 106
f 5 106 105
f 6 7 107
f 6 107 106
f 7 8 108
f 7 108 107
f 8 9 109
f 8 109 108
f 9 10 110
f 9 110 109
f 10 11 111
f 10 111 110
f 11 12 112
f 11 112 111
f 12 13 113
f 12 113 112
f 13 14 114
f 13 114 113
f 14 15 115
f 14 115 114
f 15 16 116
f 15 116 115
f 16 17 117
f 16 117 116
f 17 18 118
f 17 118 117
f 18 19 119
f 18 119 118
f 19 20 120
f 19 120 119
f 20 21 121
f 20 121 120
f 21 22 122
f 21 122 121
f 22 23 123
f 22 123 122
f 23 24 124
f 23 124 123
f 24 25 125
f 24 125 124
f 25 26 126
f 25 126 125
f 26 27 127
f 26 127 126
f 27 28 128
f 27 128 127
f 28 29 129
f 28 129 128
f 29 30 130
f 29 130 129
f 30 31 131
f 30 131 130
f 31 32 132
f 31 132 131
f 32 33 133
f 32 133 132
f 33 34 134
f 33 134 133
f 34 35 135
f 34 135 134
f 35 36 136
f 35 136 135
f 36 37 137
f 36 137 136
f 37 38 138
f 37 138 137
f 38 39 139
f 38 139 138
f 39 40 140
f 39 140 139
f 40 41 141
f 40 141 140
f 41 42 142
f 41 142 141
f 42 43 143
f 42 143 142
f 43 44 144
f 43 144 143
f 44 45 145
f 44 145 144
f 45 46 146
f 45 146 145
f 46 47 147
f 46 147 146
f 47 48 148
f 47 148 147
f 48 49 149
f 48 149 148
f 49 50 150
f 49 150 149
f 50 51 151
f 50 151 150
f 51 52 152
f 51 152 151
f 52 53 153
f 52 153 152
f 53 54 154
f 53 154 153
f 54 55 155
f 54 155 154
f 55 56 156
f 55 156 155
f 56 57 157
f 56 157 156
f 57 58 158
f 57 158 157
f 58 59 159
f 58 159 158
f 59 60 160
f 59 160 159
f 60 61 161
f 60 161 160
f 61 62 162
f 61 162 161
f 62 63 163
f 62 163 162
f 63 64 164
f 63 164 163
f 64 65 165
f 64 165 164
f 65 66 166
f 65 166 165
f 66 67 167
f 66 167 166
f 67 68 168
f 67 168 167
f 68 69 169
f 68 169 168
f 69 70 170
f 69 170 169
f 70 71 171
f 70 171 170
f 71 72 172
f 71 172 171
f 72 73 173
f 72 173 172
f 73 74 174
f 73 174 173
f 74 75 175
f 74 175 174
f 75 76 176
f 75 176 175
f 76 77 177
f 76 177 176
f 77 78 178
f 77 178 177
f 78 79 179
f 78 179 178
f 79 80 180
f 79 180 179
f 80 81 181
f 80 181 180
f 81 82 182
f 81 182 181
f 82 83 183
f 82 183 182
f 83 84 184
f 83 184 183
f 84 85 185
f 84 185 184
f 85 86 186
f 85 186 185
f 86 87 187
f 86 187 186
f 87 88 188
f 87 188 187
f 88 89 189
f 88 189 188
f 89 90 190
f 89 190 189
f 90 91 191
f 90 191 190
f 91 92 192
f 91 192 191
f 92 93 193
f 92 193 192
f 93 94 194
f 93 194 193
f 94 95 195
f 94 195 194
f 95 96 196
f 95 196 195
f 96 97 197
f 96 197 196
f 97 98 198
f 97 198 197
f 98 99 199
f 98 199 198
f 99 100 200
f 99 200 199
f 101 102 202
f 101 202 201
f 102 103 203
f 102 203 202
f 103 104 204
f 103 204 203
f 104 105 205
f 104 205 204
f 105 106 206
f 105 206 205
f 106 107 207
f 106 207 206
f 107 108 208
f 107 208 207
f 108 109 209
f 108 209 208
f 109 110 210
f 109 210 209
f 110 111 211
f 110 211 210
f 111 112 212
f 111 212 211
f 112 113 213
f 112 213 212
f 113 114 214
f 113 214 213
f 114 115 215
f 114 215 214
f 115 116 216
f 115 216 215
f 116 117 217
f 116 217 216
f 117 118 218
f 117 218 217
f 118 119 219
f 118 219 218
f 119 120 220
f 119 220 219
f 120 121 221
f 120 221 220
f 121 122 222
f 121 222 221
f 122 123 223
f 122 223 222
f 123 124 224
f 123 224 223
f 124 125 225
f 124 225 224
f 125 126 226
f 125 226 225
f 126 127 227
f 126 227 226
f 127 128 228
f 127 228 227
f 128 129 229
f 128 229 228
f 129 130 230
f 129 230 229
f 130 131 231
f 130 231 230
f 131 132 232
f 131 232 231
f 132 133 233
f 132 233 232
f 133 134 234
f 133 234 233
f 134 135 235
f 134 235 234
f 135 136 236
f 135 236 235
f 136 137 237
f 136 237 236
f 137 138 238
f 137 238 237
f 138 139 239
f 138 239 238
f 139 140 240
f 139 240 239
f 140 141 241
f 140 241 240
f 141 142 242
f 141 242 241
f 142 143 243
f 142 243 242
f 143 144 244
f 143 244 243
f 144 145 245
f 144 245 244
f 145 146 246
f 145 246 245
f 146 147 247
f 146 247 246
f 147 148 248
f 147 248 247
f 148 149 249
f 148 249 248
f 149 150 250
f 149 250 249
f 150 151 251
f 150 251 250
f 151 152 252
f 151 252 251
f 152 153 253
f 152 253 252
f 153 154 254
f 153 254 253
f 154 155 255
f 154 255 254
f 155 156 256
f 155 256 255
f 156 157 257
f 156 257 256
f 157 158 258
f 157 258 257
f 158 159 259
f 158 259 258
f 159 160 260
f 159 260 259
f 160 161 261
f 160 261 260
f 161 162 262
f 161 262 261
f 162 163 263
f 162 263 262
f 163 164 264
f 163 264 263
f 164 165 265
f 164 265 264
f 165 166 266
f 165 266 265
f 166 167 267
f 166 267 266
f 167 168 268
f 167 268 267
f 168 169 269
f 168 269 268
f 169 170 270
f 169 270 269
f 170 171 271
f 170 271 270
f 171 172 272
f 171 272 271
f 172 173 273
f 172 273 272
f 173 174 274
f 173 274 273
f 174 175 275
f 174 275 274
f 175 176 276
f 175 276 275
f 176 177 277
f 176 277 276
f 177 178 278
f 177 278 277
f 178 179 279
f 178 279 278
f 179 180 280
f 179 280 279
f 180 181 281
f 180 281 280
f 181 182 282
f 181 282 281
f 182 183 283
f 182 283 282
f 183 184 284
f 183 284 283
f 184 185 285
f 184 285 284
f 185 186 286
f 185 286 285
f 186 187 287
f 186 287 286
f 187 188 288
f 187 288 287
f 188 189 289
f 188 289 288
f 189 190 290
f 189 290 289
f 190 191 291
f 190 291 290
f 191 192 292
f 191 292 291
f 192 193 293
f 192 293 292
f 193 194 294
f 193 294 293
f 194 195 295
f 194 295 294
f 195 196 296
f 195 296 295
f 196 197 297
f 196 297 296
f 197 198 298
f 197 298 297
f 198 199 299
f 198 299 298
f 199 200 300
f 199 300 299
f 201 202 302
f 201 302 301
f 202 203 303
f 202 303 302
f 203 204 304
f 203 304 303
f 204 205 305
f 204 305 304
f 205 206 306
f 205 306 305
f 206 207 307
f 206 307 306
f 207 208 308
f 207 308 307
f 208 209 309
f 208 309 308
f 209 210 310
f 209 310 309
f 210 211 311
f 210 311 310
f 211 212 312
f 211 312 311
f 212 213 313
f 212 313 312
f 213 214 314
f 213 314 313
f 214 215 315
f 214 315 314
f 215 216 316
f 215 316 315
f 216 217 317
f 216 317 316
f 217 218 318
f 217 318 317
f 218 219 319
f 218 319 318
f 219 220 320
f 219 320 319
f 220 221 321
f 220 321 320
f 221 222 322
f 221 322 321
f 222 223 323
f 222 323 322
f 223 224 324
f 223 324 323
f 224 225 325
f 224 325 324
f 225 226 326
f 225 326 325
f 226 227 327
f 226 327 326
f 227 228 328
f 227 328 327
f 228 229 329
f 228 329 328
f 229 230 330
f 229 330 329
f 230 231 331
f 230 331 330
f 231 232 332
f 231 332 331
f 232 233 333
f 232 333 332
f 233 234 334
f 233 334 333
f 234 235 335
f 234 335 334
f 235 236 336
f 235 336 335
f 236 237 337
f 236 337 336
f 237 238 338
f 237 338 337
f 238 239 339
f 238 339 338
f 239 240 340
f 239 340 339
f 240 241 341
f 240 341 340
f 241 242 342
f 241 342 341
f 242 243 343
f 242 343 342
f 243 244 344
f 243 344 343
f 244 245 345
f 244 345 344
f 245 246 346
f 245 346 345
f 246 247 347
f 246 347 346
f 247 248 348
f 247 348 347
f 248 249 349
f 248 349 348
f 249 250 350
f 249 350 349
f 250 251 351
f 250 351 350
f 251 252 352
f 251 352 351
f 252 253 353
f 252 353 352
f 253 254 354
f 253 354 353
f 254 255 355
f 254 355 354
f 255 256 356
f 255 356 355
f 256 257 357
f 256 357 356
f 257 258 358
f 257 358 357
f 258 259 359
f 258 359 358
f 259 260 360
f 259 360 359
f 260 261 361
f 260 361 360
f 261 262 362
f 261 362 361
f 262 263 363
f 262 363 362
f 263 264 364
f 263 364 363
f 264 265 365
f 264 365 364
f 265 266 366
f 265 366 365
f 266 267 367
f 266 367 366
f 267 268 368
f 267 368 367
f 268 269 369
f 268 369 368
f 269 270 370
f 269 370 369
f 270 271 371
f 270 371 370
f 271 272 372
f 271 372 371
f 272 273 373
f 272 373 372
f 273 274 374
f 273 374 373
f 274 275 375
f 274 375 374
f 275 276 376
f 275 376 375
f 276 277 377
f 276 377 376
f 277 278 378
f 277 378 377
f 278 279 379
f 278 379 378
f 279 280 380
f 279 380 379
f 280 281 381
f 280 381 380
f 281 282 382
f 281 382 381
f 282 283 383
f 282 383 382
f 283 284 384
f 283 384 383
f 284 285 385
f 284 385 384
f 285 286 386
f 285 386 385
f 286 287 387
f 286 387 386
f 287 288 388
f 287 388 387
f 288 289 389
f 288 389 388
f 289 290 390
f 289 390 389
f 290 291 391
f 290 391 390
f 291 292 392
f 291 392 391
f 292 293 393
f 292 393 392
f 293 294 394
f 293 394 393
f 294 295 395
f 294 395 394
f 295 296 396
f 295 396 395
f 296 297 397
f 296 397 396
f 297 298 398
f 297 398 397
f 298 299 399
f 298 399 398
f 299 300 400
f 299 400 399
f 301 302 402
f 301 402 401
f 302 303 403
f 302 403 402
f 303 304 404
f 303 404 403
f 304 305 405
f 304 405 404
f 305 306 406
f 305 406 405
f 306 307 407
f 306 407 406
f 307 308 408
f 307 408 407
f 308 309 409
f 308 409 408
f 309 310 410
f 309 410 409
f 310 311 411
f 310 411 410
f 311 312 412
f 311 412 411
f 312 313 413
f 312 413 412
f 313 314 414
f 313 414 413
f 314 315 415
f 314 415 414
f 315 316 416
f 315 416 415
f 316 317 417
f 316 417 416
f 317 318 418
f 317 418 417
f 318 319 419
f 318 419 418
f 319 320 420
f 319 420 419
f 320 321 421
f 320 421 420
f 321 322 422
f 321 422 421
f 322 323 423
f 322 423 422
f 323 324 424
f 323 424 423
f 324 325 425
f 324 425 424
f 325 326 426
f 325 426 425
f 326 327 427
f 326 427 426
f 327 328 428
f 327 428 427
f 328 329 429
f 328 429 428
f 329 330 430
f 329 430 429
f 330 331 431
f 330 431 430
f 331 332 432
f 331 432 431
f 332 333 433
f 332 433 432
f 333 334 434
f 333 434 433
f 334 335 435
f 334 435 434
f 335 336 436
f 335 436 435
f 336 337 437
f 336 437 436
f 337 338 438
f 337 438 437
f 338 339 439
f 338 439 438
f 339 340 440
f 339 440 439
f 340 341 441
f 340 441 440
f 341 342 442
f 341 442 441
f 342 343 443
f 342 443 442
f 343 344 444
f 343 444 443
f 344 345 445
f 344 445 444
f 345 346 446
f 345 446 445
f 346 347 447
f 346 447 446
f 347 348 448
f 347 448 447
f 348 349 449
f 348 449 448
f 349 350 450
f 349 450 449
f 350 351 451
f 350 451 450
f 351 352 452
f 351 452 451
f 352 353 453
f 352 453 452
f 353 354 454
f 353 454 453
f 354 355 455
f 354 455 454
f 355 356 456
f 355 456 455
f 356 357 457
f 356 457 456
f 357 358 458
f 357 458 457
f 358 359 459
f 358 459 458
f 359 360 460
f 359 460 459
f 360 361 461
f 360 461 460
f 361 362 462
f 361 462 461
f 362 363 463
f 362 463 462
f 363 364 464
f 363 464 463
f 364 365 465
f 364 465 464
f 365 366 466
f 365 466 465
f 366 367 467
f 366 467 466
f 367 368 468
f 367 468 467
f 368 369 469
f 368 469 468
f 369 370 470
f 369 470 469
f 370 371 471
f 370 471 470
f 371 372 472
f 371 472 471
f 372 373 473
f 372 473 472
f 373 374 474
f 373 474 473
f 374 375 475
f 374 475 474
f 375 376 476
f 375 476 475
f 376 377 477
f 376 477 476
f 377 378 478
f 377 478 477
f 378 379 479
f 378 479 478
f 379 380 480
f 379 480 479
f 380 381 481
f 380 481 480
f 381 382 482
f 381 482 481
f 382 383 483
f 382 483 482
f 383 384 484
f 383 484 483
f 384 385 485
f 384 485 484
f 385 386 486
f 385 486 485
f 386 387 487
f 386 487 486
f 387 388 488
f 387 488 487
f 388 389 489
f 388 489 488
f 389 390 490
f 389 490 489
f 390 391 491
f 390 491 490
f 391 392 492
f 391 492 491
f 392 393 493
f 392 493 492
f 393 394 494
f 393 494 493
f 394 395 495
f 394 495 494
f 395 396 496
f 395 496 495
f 396 397 497
f 396 497 496
f 397 398 498
f 397 498 497
f 398 399 499
f 398 499 498
f 399 400 500
f 399 500 499
f 401 402 502
f 401 502 501
f 402 403 503
f 402 503 502
f 403 404 504
f 403 504 503
f 404 405 505
f 404 505 504
f 405 406 506
f 405 506 505
f 406 407 507
f 406 507 506
f 407 408 508
f 407 508 507
f 408 409 509
f 408 509 508
f 409 410 510
f 409 510 509
f 410 411 511
f 410 511 510
f 411 412 512
f 411 512 511
f 412 413 513
f 412 513 512
f 413 414 514
f 413 514 513
f 414 415 515
f 414 515 514
f 415 416 516
f 415 516 515
f 416 417 517
f 416 517 516
f 417 418 518
f 417 518 517
f 418 419 519
f 418 519 518
f 419 420 520
f 419 520 519
f 420 421 521
f 420 521 520
f 421 422 522
f 421 522 521
f 422 423 523
f 422 523 522
f 423 424 524
f 423 524 523
f 424 425 525
f 424 525 524
f 425 426 526
f 425 526 525
f 426 427 527
f 426 527 526
f 427 428 528
f 427 528 527
f 428 429 529
f 428 529 528
f 429 430 530
f 429 530 529
f 430 431 531
f 430 531 530
f 431 432 532
f 431 532 531
f 432 433 533
f 432 533 532
f 433 434 534
f 433 534 533
f 434 435 535
f 434 535 534
f 435 436 536
f 435 536 535
f 436 437 537
f 436 537 536
f 437 438 538
f 437 538 537
f 438 439 539
f 438 539 538
f 439 440 540
f 439 540 539
f 440 441 541
f 440 541 540
f 441 442 542
f 441 542 541
f 442 443 543
f 442 543 542
f 443 444 544
f 443 544 543
f 444 445 545
f 444 545 544
f 445 446 546
f 445 546 545
f 446 447 547
f 446 547 546
f 447 448 548
f 447 548 547
f 448 449 549
f 448 549 548
f 449 450 550
f 449 550 549
f 450 451 551
f 450 551 550
f 451 452 552
f 451 552 551
f 452 453 553
f 452 553 552
f 453 454 554
f 453 554 553
f 454 455 555
f 454 555 554
f 455 456 556
f 455 556 555
f 456 457 557
f 456 557 556
f 457 458 558
f 457 558 557
f 458 459 559
f 458 559 558
f 459 460 560
f 459 560 559
f 460 461 561
f 460 561 560
f 461 462 562
f 461 562 561
f 462 463 563
f 462 563 562
f 463 464 564
f 463 564 563
f 464 465 565
f 464 565 564
f 465 466 566
f 465 566 565
f 466 467 567
f 466 567 566
f 467 468 568
f 467 568 567
f 468 469 569
f 468 569 568
f 469 470 570
f 469 570 569
f 470 471 571
f 470 571 570
f 471 472 572
f 471 572 571
f 472 473 573
f 472 573 572
f 473 474 574
f 473 574 573
f 474 475 575
f 474 575 574
f 475 476 576
f 475 576 575
f 476 477 577
f 476 577 576
f 477 478 578
f 477 578 577
f 478 479 579
f 478 579 578
f 479 480 580
f 479 580 579
f 480 481 581
f 480 581 580
f 481 482 582
f 481 582 581
f 482 483 583
f 482 583 582
f 483 484 584
f 483 584 583
f 484 485 585
f 484 585 584
f 485 486 586
f 485 586 585
f 486 487 587
f 486 587 586
f 487 488 588
f 487 588 587
f 488 489 589
f 488 589 588
f 489 490 590
f 489 590 589
f 490 491 591
f 490 591 590
f 491 492 592
f 491 592 591
f 492 493 593
f 492 593 592
f 493 494 594
f 493 594 593
f 494 495 595
f 494 595 594
f 495 496 596
f 495 596 595
f 496 497 597
f 496 597 596
f 497 498 598
f 497 598 597
f 498 499 599
f 498 599 598
f 499 500 600
f 499 600 599
f 501 502 602
f 501 602 601
f 502 503 603
f 502 603 602
f 503 504 604
f 503 604 603
f 504 505 605
f 504 605 604
f 505 506 606
f 505 606 605
f 506 507 607
f 506 607 606
f 507 508 608
f 507 608 607
f 508 509 609
f 508 609 608
f 509 510 610
f 509 610 609
f 510 511 611
f 510 611 610
f 511 512 612
f 511 612 611
f 512 513 613
f 512 613 612
f 513 514 614
f 513 614 613
f 514 515 615
f 514 615 614
f 515 516 616
f 515 616 615
f 516 517 617
f 516 617 616
f 517 518 618
f 517 618 617
f 518 519 619
f 518 619 618
f 519 520 620
f 519 620 619
f 520 521 621
f 520 621 620
f 521 522 622
f 521 622 621
f 522 523 623
f 522 623 622
f 523 524 624
f 523 624 623
f 524 525 625
f 524 625 624
f 525 526 626
f 525 626 625
f 526 527 627
f 526 627 626
f 527 528 628
f 527 628 627
f 528 529 629
f 528 629 628
f 529 530 630
f 529 630 629
f 530 531 631
f 530 631 630
f 531 532 632
f 531 632 631
f 532 533 633
f 532 633 632
f 533 534 634
f 533 634 633
f 534 535 635
f 534 635 634
f 535 536 636
f 535 636 635
f 536 537 637
f 536 637 636
f 537 538 638
f 537 638 637
f 538 539 639
f 538 639 638
f 539 540 640
f 539 640 639
f 540 541 641
f 540 641 640
f 541 542 642
f 541 642 641
f 542 543 643
f 542 643 642
f 543 544 644
f 543 644 643
f 544 545 645
f 544 645 644
f 545 546 646
f 545 646 645
f 546 547 647
f 546 647 646
f 547 548 648
f 547 648 647
f 548 549 649
f 548 649 648
f 549 550 650
f 549 650 649
f 550 551 651
f 550 651 650
f 551 552 652
f 551 652 651
f 552 553 653
f 552 653 652
f 553 554 654
f 553 654 653
f 554 555 655
f 554 655 654
f 555 556 656
f 555 656 655
f 556 557 657
f 556 657 656
f 557 558 658
f 557 658 657
f 558 559 659
f 558 659 658
f 559 560 660
f 559 660 659
f 560 561 661
f 560 661 660
f 561 562 662
f 561 662 661
f 562 563 663
f 562 663 662
f 563 564 664
f 563 664 663
f 564 565 665
f 564 665 664
f 565 566 666
f 565 666 665
f 566 567 667
f 566 667 666
f 567 568 668
f 567 668 667
f 568 569 669
f 568 669 668
f 569 570 670
f 569 670 669
f 570 571 671
f 570 671 670
f 571 572 672
f 571 672 671
f 572 573 673
f 572 673 672
f 573 574 674
f 573 674 673
f 574 575 675
f 574 675 674
f 575 576 676
f 575 676 675
f 576 577 677
f 576 677 676
f 577 578 678
f 577 678 677
f 578 579 679
f 578 679 678
f 579 580 680
f 579 680 679
f 580 581 681
f 580 681 680
f 581 582 682
f 581 682 681
f 582 583 683
f 582 683 682
f 583 584 684
f 583 684 683
f 584 585 685
f 584 685 684
f 585 586 686
f 585 686 685
f 586 587 687
f 586 687 686
f 587 588 688
f 587 688 687
f 588 589 689
f 588 689 688
f 589 590 690
f 589 690 689
f 590 591 691
f 590 691 690
f 591 592 692
f 591 692 691
f 592 593 693
f 592 693 692
f 593 594 694
f 593 694 693
f 594 595 695
f 594 695 694
f 595 596 696
f 595 696 695
f 596 597 697
f 596 697 696
f 597 598 698
f 597 698 697
f 598 599 699
f 598 699 698
f 599 600 700
f 599 700 699
f 601 602 702
f 601 702 701
f 602 603 703
f 602 703 702
f 603 604 704
f 603 704 703
f 604 605 705
f 604 705 704
f 605 606 706
f 605 706 705
f 606 607 707
f 606 707 706
f 607 608 708
f 607 708 707
f 608 609 709
f 608 709 708
f 609 610 710
f 609 710 709
f 610 611 711
f 610 711 710
f 611 612 712
f 611 712 711
f 612 613 713
f 612 713 712
f 613 614 714
f 613 714 713
f 614 615 715
f 614 715 714
f 615 616 716
f 615 716 715
f 616 617 717
f 616 717 716
f 617 618 718
f 617 718 717
f 618 619 719
f 618 719 718
f 619 620 720
f 619 720 719
f 620 621 721
f 620 721 720
f 621 622 722
f 621 722 721
f 622 623 723
f 622 723 722
f 623 624 724
f 623 724 723
f 624 625 725
f 624 725 724
f 625 626 726
f 625 726 725
f 626 627 727
f 626 727 726
f 627 628 728
f 627 728 727
f 628 629 729
f 628 729 728
f 629 630 730
f 629 730 729
f 630 631 731
f 630 731 730
f 631 632 732
f 631 732 731
f 632 633 733
f 632 733 732
f 633 634 734
f 633 734 733
f 634 635 735
f 634 735 734
f 635 636 736
f 635 736 735
f 636 637 737
f 636 737 736
f 637 638 738
f 637 738 737
f 638 639 739
f 638 739 738
f 639 640 740
f 639 740 739
f 640 641 741
f 640 741 740
f 641 642 742
f 641 742 741
f 642 643 743
f 642 743 742
f 643 644 744
f 643 744 743
f 644 645 745
f 644 745 744
f 645 646 746
f 645 746 745
f 646 647 747
f 646 747 746
f 647 648 748
f 647 748 747
f 648 649 749
f 648 749 748
f 649 650 750
f 649 750 749
f 650 651 751
f 650 751 750
f 651 652 752
f 651 752 751
f 652 653 753
f 652 753 752
f 653 654 754
f 653 754 753
f 654 655 755
f 654 755 754
f 655 656 756
f 655 756 755
f 656 657 757
f 656 757 756
f 657 658 758
f 657 758 757
f 658 659 759
f 658 759 758
f 659 660 760
f 659 760 759
f 660 661 761
f 660 761 760
f 661 662 762
f 661 762 761
f 662 663 763
f 662 763 762
f 663 664 764
f 663 764 763
f 664 665 765
f 664 765 764
f 665 666 766
f 665 766 765
f 666 667 767
f 666 767 766
f 667 668 768
f 667 768 767
f 668 669 769
f 668 769 768
f 669 670 770
f 669 770 769
f 670 671 771
f 670 771 770
f 671 672 772
f 671 772 771
f 672 673 773
f 672 773 772
f 673 674 774
f 673 774 773
f 674 675 775
f 674 775 774
f 675 676 776
f 675 776 775
f 676 677 777
f 676 777 776
f 677 678 778
f 677 778 777
f 678 679 779
f 678 779 778
f 679 680 780
f 679 780 779
f 680 681 781
f 680 781 780
f 681 682 782
f 681 782 781
f 682 683 783
f 682 783 782
f 683 684 784
f 683 784 783
f 684 685 785
f 684 785 784
f 685 686 786
f 685 786 785
f 686 687 787
f 686 787 786
f 687 688 788
f 687 788 787
f 688 689 789
f 688 789 788
f 689 690 790
f 689 790 789
f 690 691 791
f 690 791 790
f 691 692 792
f 691 792 791
f 692 693 793
f 692 793 792
f 693 694 794
f 693 794 793
f 694 695 795
f 694 795 794
f 695 696 796
f 695 796 795
f 696 697 797
f 696 797 796
f 697 698 798
f 697 798 797
f 698 699 799
f 698 799 798
f 699 700 800
f 699 800 799
f 701 702 802
f 701 802 801
f 702 703 803
f 702 803 802
f 703 704 804
f 703 804 803
f 704 705 805
f 704 805 804
f 705 706 806
f 705 806 805
f 706 707 807
f 706 807 806
f 707 708 808
f 707 808 807
f 708 709 809
f 708 809 808
f 709 710 810
f 709 810 809
f 710 711 811
f 710 811 810
f 711 712 812
f 711 812 811
f 712 713 813
f 712 813 812
f 713 714 814
f 713 814 813
f 714 715 815
f 714 815 814
f 715 716 816
f 715 816 815
f 716 717 817
f 716 817 816
f 717 718 818
f 717 818 817
f 718 719 819
f 718 819 818
f 719 720 820
f 719 820 819
f 720 721 821
f 720 821 820
f 721 722 822
f 721 822 821
f 722 723 823
f 722 823 822
f 723 724 824
f 723 824 823
f 724 725 825
f 724 825 824
f 725 726 826
f 725 826 825
f 726 727 827
f 726 827 826
f 727 728 828
f 727 828 827
f 728 729 829
f 728 829 828
f 729 730 830
f 729 830 829
f 730 731 831
f 730 831 830
f 731 732 832
f 731 832 831
f 732 733 833
f 732 833 832
f 733 734 834
f 733 834 833
f 734 735 835
f 734 835 834
f 735 736 836
f 735 836 835
f 736 737 837
f 736 837 836
f 737 738 838
f 737 838 837
f 738 739 839
f 738 839 838
f 739 740 840
f 739 840 839
f 740 741 841
f 740 841 840
f 741 742 842
f 741 842 841
f 742 743 843
f 742 843 842
f 743 744 844
f 743 844 843
f 744 745 845
f 744 845 844
f 745 746 846
f 745 846 845
f 746 747 847
f 746 847 846
f 747 748 848
f 747 848 847
f 748 749 849
f 748 849 848
f 749 750 850
f 749 850 849
f 750 751 851
f 750 851 850
f 751 752 852
f 751 852 851
f 752 753 853
f 752 853 852
f 753 754 854
f 753 854 853
f 754 755 855
f 754 855 854
f 755 756 856
f 755 856 855
f 756 757 857
f 756 857 856
f 757 758 858
f 757 858 857
f 758 759 859
f 758 859 858
f 759 760 860
f 759 860 859
f 760 761 861
f 760 861 860
f 761 762 862
f 761 862 861
f 762 763 863
f 762 863 862
f 763 764 864
f 763 864 863
f 764 765 865
f 764 865 864
f 765 766 866
f 765 866 865
f 766 767 867
f 766 867 866
f 767 768 868
f 767 868 867
f 768 769 869
f 768 869 868
f 769 770 870
f 769 870 869
f 770 771 871
f 770 871 870
f 771 772 872
f 771 872 871
f 772 773 873
f 772 873 872
f 773 774 874
f 773 874 873
f 774 775 875
f 774 875 874
f 775 776 876
f 775 876 875
f 776 777 877
f 776 877 876
f 777 778 878
f 777 878 877
f 778 779 879
f 778 879 878
f 779 780 880
f 779 880 879
f 780 781 881
f 780 881 880
f 781 782 882
f 781 882 881
f 782 783 883
f 782 883 882
f 783 784 884
f 783 884 883
f 784 785 885
f 784 885 884
f 785 786 886
f 785 886 885
f 786 787 887
f 786 887 886
f 787 788 888
f 787 888 887
f 788 789 889
f 788 889 888
f 789 790 890
f 789 890 889
f 790 791 891
f 790 891 890
f 791 792 892
f 791 892 891
f 792 793 893
f 792 893 892
f 793 794 894
f 793 894 893
f 794 795 895
f 794 895 894
f 795 796 896
f 795 896 895
f 796 797 897
f 796 897 896
f 797 798 898
f 797 898 897
f 798 799 899
f 798 899 898
f 799 800 900
f 799 900 899
f 801 802 902
f 801 902 901
f 802 803 903
f 802 903 902
f 803 804 904
f 803 904 903
f 804 805 905
f 804 905 904
f 805 806 906
f 805 906 905
f 806 807 907
f 806 907 906
f 807 808 908
f 807 908 907
f 808 809 909
f 808 909 908
f 809 810 910
f 809 910 909
f 810 811 911
f 810 911 910
f 811 812 912
f 811 912 911
f 812 813 913
f 812 913 912
f 813 814 914
f 813 914 913
f 814 815 915
f 814 915 914
f 815 816 916
f 815 916 915
f 816 817 917
f 816 917 916
f 817 818 918
f 817 918 917
f 818 819 919
f 818 919 918
f 819 820 920
f 819 920 919
f 820 821 921
f 820 921 920
f 821 822 922
f 821 922 921
f 822 823 923
f 822 923 922
f 823 824 924
f 823 924 923
f 824 825 925
f 824 925 924
f 825 826 926
f 825 926 925
f 826 827 927
f 826 927 926
f 827 828 928
f 827 928 927
f 828 829 929
f 828 929 928
f 829 830 930
f 829 930 929
f 830 831 931
f 830 931 930
f 831 832 932
f 831 932 931
f 832 833 933
f 832 933 932
f 833 834 934
f 833 934 933
f 834 835 935
f 834 935 934
f 835 836 936
f 835 936 935
f 836 837 937
f 836 937 936
f 837 838 938
f 837 938 937
f 838 839 939
f 838 939 938
f 839 840 940
f 839 940 939
f 840 841 941
f 840 941 940
f 841 842 942
f 841 942 941
f 842 843 943
f 842 943 942
f 843 844 944
f 843 944 943
f 844 845 945
f 844 945 944
f 845 846 946
f 845 946 945
f 846 847 947
f 846 947 946
f 847 848 948
f 847 948 947
f 848 849 949
f 848 949 948
f 849 850 950
f 849 950 949
f 850 851 951
f 850 951 950
f 851 852 952
f 851 952 951
f 852 853 953
f 852 953 952
f 853 854 954
f 853 954 953
f 854 855 955
f 854 955 954
f 855 856 956
f 855 956 955
f 856 857 957
f 856 957 956
f 857 858 958
f 857 958 957
f 858 859 959
f 858 959 958
f 859 860 960
f 859 960 959
f 860 861 961
f 860 961 960
f 861 862 962
f 861 962 961
f 862 863 963
f 862 963 962
f 863 864 964
f 863 964 963
f 864 865 965
f 864 965 964
f 865 866 966
f 865 966 965
f 866 867 967
f 866 967 966
f 867 868 968
f 867 968 967
f 868 869 969
f 868 969 968
f 869 870 970
f 869 970 969
f 870 871 971
f 870 971 970
f 871 872 972
f 871 972 971
f 872 873 973
f 872 973 972
f 873 874 974
f 873 974 973
f 874 875 975
f 874 975 974
f 875 876 976
f 875 976 975
f 876 877 977
f 876 977 976
f 877 878 978
f 877 978 977
f 878 879 979
f 878 979 978
f 879 880 980
f 879 980 979
f 880 881 981
f 880 981 980
f 881 882 982
f 881 982 981
f 882 883 983
f 882 983 982
f 883 884 984
f 883 984 983
f 884 885 985
f 884 985 984
f 885 886 986
f 885 986 985
f 886 887 987
f 886 987 986
f 887 888 988
f 887 988 987
f 888 889 989
f 888 989 988
f 889 890 990
f 889 990 989
f 890 891 991
f 890 991 990
f 891 892 992
f 891 992 991
f 892 893 993
f 892 993 992
f 893 894 994
f 893 994 993
f 894 895 995
f 894 995 994
f 895 896 996
f 895 996 995
f 896 897 997
f 896 997 996
f 897 898 998
f 897 998 997
f 898 899 999
f 898 999 998
f 899 900 1000
f 899 1000 999
